<?xml version="1.0" encoding="UTF-8" standalone="no"?>
<!-- Created with Inkscape (http://www.inkscape.org/) -->

<svg
   width="44.247219mm"
   height="35.758789mm"
   viewBox="0 0 44.24722 35.758789"
   version="1.1"
   id="svg5"
   sodipodi:docname="logo.svg"
   inkscape:export-filename="logo.svg"
   inkscape:export-xdpi="96"
   inkscape:export-ydpi="96"
   inkscape:version="1.2.2 (b0a8486541, 2022-12-01)"
   xmlns:inkscape="http://www.inkscape.org/namespaces/inkscape"
   xmlns:sodipodi="http://sodipodi.sourceforge.net/DTD/sodipodi-0.dtd"
   xmlns="http://www.w3.org/2000/svg"
   xmlns:svg="http://www.w3.org/2000/svg">
  <sodipodi:namedview
     id="namedview7"
     pagecolor="#ffffff"
     bordercolor="#000000"
     borderopacity="0.25"
     inkscape:showpageshadow="2"
     inkscape:pageopacity="0.0"
     inkscape:pagecheckerboard="0"
     inkscape:deskcolor="#d1d1d1"
     inkscape:document-units="mm"
     showgrid="false"
     inkscape:zoom="0.77818378"
     inkscape:cx="391.29574"
     inkscape:cy="-6.4252174"
     inkscape:window-width="1600"
     inkscape:window-height="831"
     inkscape:window-x="0"
     inkscape:window-y="0"
     inkscape:window-maximized="1"
     inkscape:current-layer="text113" />
  <defs
     id="defs2" />
  <g
     inkscape:label="Layer 1"
     inkscape:groupmode="layer"
     id="layer1"
     transform="translate(-20.266346,-127.94545)">
    <g
       aria-label="delipizza"
       id="text113"
       style="font-size:33.5575px;fill:#ed8936;stroke-width:0.349557">
      <path
         d="m 38.521625,152.17397 q -3.120847,3.12085 -7.550437,3.12085 -4.42959,0 -7.583995,-3.12085 -3.120847,-3.15441 -3.120847,-7.584 0,-4.42959 3.120847,-7.55043 3.154405,-3.15441 7.583995,-3.15441 2.483255,0 4.765165,1.1074 v -4.06046 l 5.939677,-2.98662 v 16.64452 q 0,4.42959 -3.154405,7.584 z m -10.939744,-4.19469 q 1.409415,1.37586 3.389307,1.37586 1.979893,0 3.35575,-1.37586 1.409415,-1.40941 1.409415,-3.38931 0,-1.97989 -1.409415,-3.35575 -1.375857,-1.40941 -3.35575,-1.40941 -1.979892,0 -3.389307,1.40941 -1.375858,1.37586 -1.375858,3.35575 0,1.9799 1.375858,3.38931 z"
         style="font-family:Yaro;-inkscape-font-specification:Yaro"
         id="path844" />
      <path
         d="m 46.224722,136.99248 q 3.154404,-3.15441 7.583994,-3.15441 4.429587,0 7.550437,3.15441 3.15441,3.12084 3.15441,7.55043 0,4.42959 -3.15441,7.584 -3.12085,3.12085 -7.550437,3.12085 -2.483255,0 -4.765165,-1.1074 v 6.57727 l -5.939677,2.98661 v -19.16133 q 0,-4.42959 3.120848,-7.55043 z m 10.939741,4.22824 q -1.37585,-1.40941 -3.355747,-1.40941 -1.979892,0 -3.389307,1.40941 -1.375858,1.37586 -1.375858,3.32219 0,1.9799 1.375858,3.38931 1.409415,1.37586 3.389307,1.37586 1.979897,0 3.355747,-1.37586 1.40942,-1.40941 1.40942,-3.38931 0,-1.94633 -1.40942,-3.32219 z"
         style="font-family:Yaro;-inkscape-font-specification:Yaro"
         id="path852" />
    </g>
  </g>
</svg>
