<?xml version="1.0" encoding="UTF-8" standalone="no"?>
<!-- Created with Inkscape (http://www.inkscape.org/) -->

<svg
   width="163.12299mm"
   height="35.805851mm"
   viewBox="0 0 163.12299 35.805851"
   version="1.1"
   id="svg5"
   sodipodi:docname="logo.svg"
   inkscape:export-filename="logo.svg"
   inkscape:export-xdpi="96"
   inkscape:export-ydpi="96"
   inkscape:version="1.2.2 (b0a8486541, 2022-12-01)"
   xmlns:inkscape="http://www.inkscape.org/namespaces/inkscape"
   xmlns:sodipodi="http://sodipodi.sourceforge.net/DTD/sodipodi-0.dtd"
   xmlns="http://www.w3.org/2000/svg"
   xmlns:svg="http://www.w3.org/2000/svg">
  <sodipodi:namedview
     id="namedview7"
     pagecolor="#ffffff"
     bordercolor="#000000"
     borderopacity="0.25"
     inkscape:showpageshadow="2"
     inkscape:pageopacity="0.0"
     inkscape:pagecheckerboard="0"
     inkscape:deskcolor="#d1d1d1"
     inkscape:document-units="mm"
     showgrid="false"
     inkscape:zoom="0.77818378"
     inkscape:cx="391.29574"
     inkscape:cy="-6.4252174"
     inkscape:window-width="1600"
     inkscape:window-height="831"
     inkscape:window-x="0"
     inkscape:window-y="0"
     inkscape:window-maximized="1"
     inkscape:current-layer="text113" />
  <defs
     id="defs2" />
  <g
     inkscape:label="Layer 1"
     inkscape:groupmode="layer"
     id="layer1"
     transform="translate(-20.266346,-127.94545)">
    <g
       aria-label="delipizza"
       id="text113"
       style="font-size:33.5575px;fill:#ed8936;stroke-width:0.349557">
      <path
         d="m 38.521625,152.17397 q -3.120847,3.12085 -7.550437,3.12085 -4.42959,0 -7.583995,-3.12085 -3.120847,-3.15441 -3.120847,-7.584 0,-4.42959 3.120847,-7.55043 3.154405,-3.15441 7.583995,-3.15441 2.483255,0 4.765165,1.1074 v -4.06046 l 5.939677,-2.98662 v 16.64452 q 0,4.42959 -3.154405,7.584 z m -10.939744,-4.19469 q 1.409415,1.37586 3.389307,1.37586 1.979893,0 3.35575,-1.37586 1.409415,-1.40941 1.409415,-3.38931 0,-1.97989 -1.409415,-3.35575 -1.375857,-1.40941 -3.35575,-1.40941 -1.979892,0 -3.389307,1.40941 -1.375858,1.37586 -1.375858,3.35575 0,1.9799 1.375858,3.38931 z"
         style="font-family:Yaro;-inkscape-font-specification:Yaro"
         id="path844" />
      <path
         d="m 46.474743,137.03954 q 3.120847,-3.12085 7.516879,-3.12085 4.396033,0 7.483323,3.12085 3.120847,3.12084 3.120847,7.55043 0,0.73827 -0.100672,1.44298 H 49.46136 q 0.469805,1.47653 1.711432,2.41614 1.241628,0.90605 2.81883,0.90605 1.174513,0 2.181238,-0.53692 h 7.583995 q -1.241628,2.9195 -3.89267,4.69805 -2.651043,1.77855 -5.872563,1.77855 -4.396032,0 -7.516879,-3.12085 -3.120848,-3.12085 -3.120848,-7.584 0,-4.42959 3.120848,-7.55043 z m 3.288634,5.43631 h 8.422933 q -0.604035,-1.17451 -1.74499,-1.87922 -1.107398,-0.73826 -2.449698,-0.73826 -1.375857,0 -2.516812,0.73826 -1.107398,0.70471 -1.711433,1.87922 z"
         style="font-family:Yaro;-inkscape-font-specification:Yaro"
         id="path846" />
      <path
         d="m 66.709895,144.58997 v -16.64452 l 5.939677,2.98662 v 13.6579 q 0,1.9799 1.375857,3.38931 1.409415,1.37586 3.35575,1.37586 v 5.93968 q -4.42959,0 -7.550437,-3.12085 -3.120847,-3.15441 -3.120847,-7.584 z"
         style="font-family:Yaro;-inkscape-font-specification:Yaro"
         id="path848" />
      <path
         d="m 86.2068,133.88513 v 21.40969 h -5.939678 v -18.42307 z"
         style="font-family:Yaro;-inkscape-font-specification:Yaro"
         id="path850"
         sodipodi:nodetypes="ccccc" />
      <path
         d="m 91.844449,137.03954 q 3.154404,-3.15441 7.583994,-3.15441 4.429587,0 7.550437,3.15441 3.15441,3.12084 3.15441,7.55043 0,4.42959 -3.15441,7.584 -3.12085,3.12085 -7.550437,3.12085 -2.483255,0 -4.765165,-1.1074 v 6.57727 l -5.939677,2.98661 v -19.16133 q 0,-4.42959 3.120848,-7.55043 z m 10.939741,4.22824 q -1.37585,-1.40941 -3.355747,-1.40941 -1.979892,0 -3.389307,1.40941 -1.375858,1.37586 -1.375858,3.32219 0,1.9799 1.375858,3.38931 1.409415,1.37586 3.389307,1.37586 1.979897,0 3.355747,-1.37586 1.40942,-1.40941 1.40942,-3.38931 0,-1.94633 -1.40942,-3.32219 z"
         style="font-family:Yaro;-inkscape-font-specification:Yaro"
         id="path852" />
      <path
         d="m 118.52265,133.88513 v 21.40969 h -5.93967 v -18.42307 z"
         style="font-family:Yaro;-inkscape-font-specification:Yaro"
         id="path854"
         sodipodi:nodetypes="ccccc" />
      <path
         d="m 139.6303,155.29482 h -19.0271 l 8.79207,-15.47001 h -4.49671 l -2.98661,-5.93968 h 17.71835 l -8.79206,15.43645 h 5.80545 z"
         style="font-family:Yaro;-inkscape-font-specification:Yaro"
         id="path856" />
      <path
         d="m 160.67089,155.29482 h -19.02711 l 8.79207,-15.47001 h -4.49671 l -2.98661,-5.93968 h 17.71836 l -8.79207,15.43645 h 5.80545 z"
         style="font-family:Yaro;-inkscape-font-specification:Yaro"
         id="path858" />
      <path
         d="m 165.1005,137.03954 q 3.1544,-3.15441 7.58399,-3.15441 4.42959,0 7.55044,3.15441 3.1544,3.12084 3.1544,7.55043 v 12.55051 l -5.93967,-2.95306 q -2.31547,1.1074 -4.76517,1.1074 -4.42959,0 -7.58399,-3.12085 -3.12085,-3.15441 -3.12085,-7.584 0,-4.42959 3.12085,-7.55043 z m 10.93974,4.19468 q -1.37586,-1.40941 -3.35575,-1.40941 -1.97989,0 -3.38931,1.40941 -1.37585,1.37586 -1.37585,3.35575 0,1.9799 1.37585,3.38931 1.40942,1.37586 3.38931,1.37586 1.97989,0 3.35575,-1.37586 1.40942,-1.40941 1.40942,-3.38931 0,-1.97989 -1.40942,-3.35575 z"
         style="font-family:Yaro;-inkscape-font-specification:Yaro"
         id="path860" />
    </g>
  </g>
</svg>
